<svg enable-background="new 0 0 80 140" height="140" viewBox="0 0 80 140" width="80" xmlns="http://www.w3.org/2000/svg"><g fill="#e84d37"><path d="m40 7.101c15.622 0 28.285 12.664 28.285 28.286 0 5.112-1.362 9.902-3.734 14.041 4.503.643 7.971 4.506 7.971 9.188 0 5.133-4.16 9.293-9.293 9.293-4.682 0-8.545-3.467-9.188-7.971-.353.201-.709.396-1.07.583-1.012 6.26-6.426 11.045-12.971 11.045-6.546 0-11.96-4.786-12.972-11.046-.361-.187-.717-.381-1.069-.582-.644 4.504-4.505 7.971-9.188 7.971-5.132 0-9.292-4.161-9.292-9.293 0-4.682 3.466-8.544 7.97-9.188-2.372-4.139-3.735-8.929-3.735-14.041 0-15.622 12.664-28.286 28.286-28.286m0-7c-19.457 0-35.286 15.829-35.286 35.286 0 3.646.568 7.263 1.668 10.713-3.619 3.016-5.903 7.552-5.903 12.515 0 8.984 7.309 16.294 16.292 16.294 3.157 0 6.141-.925 8.672-2.529 3.681 3.846 8.86 6.187 14.557 6.187s10.875-2.341 14.556-6.187c2.531 1.604 5.516 2.529 8.673 2.529 8.984 0 16.293-7.31 16.293-16.294 0-4.962-2.284-9.499-5.903-12.516 1.099-3.45 1.667-7.067 1.667-10.713-.001-19.456-15.83-35.285-35.286-35.285z"/><path d="m63.229 78.908c-2.835 0-5.56-.598-8.04-1.681-.371.3-.761.574-1.149.851l.525.525-3.898 3.898-1.673-1.673c-.687.273-1.386.517-2.101.728l2.359 2.359-3.898 3.898-3.898-3.898 1.556-1.556c-.989.122-1.989.206-3.011.206-.988 0-1.958-.079-2.917-.194l1.543 1.544-3.898 3.898-3.898-3.898 2.339-2.34c-.716-.209-1.417-.451-2.104-.724l-1.649 1.649-3.898-3.898.49-.489c-.405-.288-.811-.575-1.197-.887-2.48 1.083-5.204 1.681-8.039 1.681-.204 0-.401-.024-.603-.03-.069.531-.032 1.083.16 1.622l20.375 57.125c.024.068.059.128.087.193.03.07.058.139.092.206.07.14.15.271.237.397.029.042.054.087.084.129.125.166.262.32.412.459.032.03.069.055.103.084.125.107.254.205.392.294.058.037.118.07.179.104.138.077.279.145.426.202.038.015.07.038.108.052.02.007.04.009.059.016.127.043.258.074.391.103.055.012.109.029.164.038.185.03.373.048.562.048s.377-.018.562-.048c.057-.009.113-.027.17-.04.13-.027.259-.058.384-.101.021-.007.041-.009.061-.016.04-.014.072-.037.111-.053.145-.058.285-.124.421-.2.062-.034.123-.068.183-.106.136-.088.265-.186.388-.291.034-.03.072-.056.105-.086.15-.14.287-.294.412-.46.03-.04.054-.084.082-.125.088-.128.169-.261.24-.401.033-.066.062-.134.09-.201.028-.066.064-.128.089-.197l20.373-57.124c.192-.539.229-1.091.16-1.622-.202.006-.399.03-.603.03zm-13.977 15.633-3.898 3.898-3.898-3.898 3.898-3.898zm-13.109 5.313 3.898-3.898 3.898 3.898-3.898 3.898zm7.796 10.625-3.898 3.898-3.898-3.898 3.898-3.898zm-3.898-25.149 3.898 3.898-3.898 3.898-3.898-3.898zm-1.414 9.211-3.898 3.898-3.898-3.898 3.898-3.898zm-14.903-14.144.38-.38 3.898 3.898-2.229 2.229zm2.793 7.832 2.899-2.899 3.898 3.898-3.898 3.898-1.791-1.791zm2.794 7.832.105-.105 3.898 3.898-1.954 1.954zm4.205 11.792-1.413-3.96 2.625-2.625 3.898 3.898-3.898 3.898zm3.431 9.618-1.863-5.223 3.543 3.543zm3.053 8.56-2.31-6.476 2.351-2.351 2.29 2.29zm3.074-8.621-1.619-1.619 3.415-3.415zm3.364-9.431-1.085 1.085-3.898-3.898 3.898-3.898 2.564 2.564zm2.223-6.232-1.894-1.894 3.898-3.898.046.045zm3.668-10.283-1.663 1.663-3.898-3.898 3.898-3.898 2.838 2.838zm1.919-5.38-2.168-2.168 3.898-3.898.319.319z"/></g></svg>